<mxfile host="app.diagrams.net" agent="Mozilla/5.0 (Windows NT 10.0; Win64; x64) AppleWebKit/537.36 (KHTML, like Gecko) Chrome/133.0.0.0 Safari/537.36 OPR/118.0.0.0" version="27.0.3">
  <diagram name="Pagina-1" id="ULorsX4dkZvLXAzqjklM">
    <mxGraphModel dx="2839" dy="1103" grid="1" gridSize="10" guides="1" tooltips="1" connect="1" arrows="1" fold="1" page="1" pageScale="1" pageWidth="827" pageHeight="1169" math="0" shadow="0">
      <root>
        <mxCell id="0" />
        <mxCell id="1" parent="0" />
        <mxCell id="FWpXfkDFyRF1rJNaKwE4-2" value="main" style="shape=folder;fontStyle=1;tabWidth=110;tabHeight=30;tabPosition=left;html=1;boundedLbl=1;labelInHeader=1;container=1;collapsible=0;recursiveResize=0;whiteSpace=wrap;" parent="1" vertex="1">
          <mxGeometry x="-420" y="80" width="580" height="230" as="geometry" />
        </mxCell>
        <mxCell id="FWpXfkDFyRF1rJNaKwE4-3" value="&lt;div&gt;«interface»&lt;br&gt;&lt;/div&gt;Alerter" style="html=1;whiteSpace=wrap;" parent="FWpXfkDFyRF1rJNaKwE4-2" vertex="1">
          <mxGeometry width="110" height="30" relative="1" as="geometry">
            <mxPoint x="20" y="50" as="offset" />
          </mxGeometry>
        </mxCell>
        <mxCell id="FWpXfkDFyRF1rJNaKwE4-11" value="&lt;div&gt;«interface»&lt;br&gt;&lt;/div&gt;MoneyHandler" style="html=1;whiteSpace=wrap;" parent="FWpXfkDFyRF1rJNaKwE4-2" vertex="1">
          <mxGeometry x="310" y="50" width="110" height="30" as="geometry" />
        </mxCell>
        <mxCell id="FWpXfkDFyRF1rJNaKwE4-14" style="edgeStyle=orthogonalEdgeStyle;rounded=0;orthogonalLoop=1;jettySize=auto;html=1;dashed=1;strokeWidth=2;" parent="FWpXfkDFyRF1rJNaKwE4-2" source="FWpXfkDFyRF1rJNaKwE4-10" target="FWpXfkDFyRF1rJNaKwE4-4" edge="1">
          <mxGeometry relative="1" as="geometry">
            <Array as="points">
              <mxPoint x="195" y="100" />
              <mxPoint x="215" y="100" />
            </Array>
          </mxGeometry>
        </mxCell>
        <mxCell id="FWpXfkDFyRF1rJNaKwE4-10" value="Bot" style="html=1;whiteSpace=wrap;" parent="FWpXfkDFyRF1rJNaKwE4-2" vertex="1">
          <mxGeometry x="150" y="110" width="110" height="30" as="geometry" />
        </mxCell>
        <mxCell id="FWpXfkDFyRF1rJNaKwE4-9" value="Main" style="html=1;whiteSpace=wrap;" parent="FWpXfkDFyRF1rJNaKwE4-2" vertex="1">
          <mxGeometry x="330" y="180" width="110" height="30" as="geometry" />
        </mxCell>
        <mxCell id="FWpXfkDFyRF1rJNaKwE4-8" value="SceneController" style="html=1;whiteSpace=wrap;" parent="FWpXfkDFyRF1rJNaKwE4-2" vertex="1">
          <mxGeometry x="20" y="180" width="110" height="30" as="geometry" />
        </mxCell>
        <mxCell id="FWpXfkDFyRF1rJNaKwE4-15" style="edgeStyle=orthogonalEdgeStyle;rounded=0;orthogonalLoop=1;jettySize=auto;html=1;exitX=0.464;exitY=-0.006;exitDx=0;exitDy=0;exitPerimeter=0;dashed=1;dashPattern=8 8;strokeWidth=2;" parent="FWpXfkDFyRF1rJNaKwE4-2" source="FWpXfkDFyRF1rJNaKwE4-7" target="FWpXfkDFyRF1rJNaKwE4-11" edge="1">
          <mxGeometry relative="1" as="geometry">
            <Array as="points">
              <mxPoint x="365" y="110" />
            </Array>
          </mxGeometry>
        </mxCell>
        <mxCell id="FWpXfkDFyRF1rJNaKwE4-17" style="edgeStyle=orthogonalEdgeStyle;rounded=0;orthogonalLoop=1;jettySize=auto;html=1;dashed=1;dashPattern=8 8;strokeWidth=2;" parent="FWpXfkDFyRF1rJNaKwE4-2" source="FWpXfkDFyRF1rJNaKwE4-7" target="FWpXfkDFyRF1rJNaKwE4-6" edge="1">
          <mxGeometry relative="1" as="geometry">
            <Array as="points">
              <mxPoint x="365" y="100" />
              <mxPoint x="495" y="100" />
            </Array>
          </mxGeometry>
        </mxCell>
        <mxCell id="FWpXfkDFyRF1rJNaKwE4-18" style="edgeStyle=orthogonalEdgeStyle;rounded=0;orthogonalLoop=1;jettySize=auto;html=1;entryX=0.723;entryY=0.954;entryDx=0;entryDy=0;entryPerimeter=0;dashed=1;dashPattern=8 8;strokeWidth=2;" parent="FWpXfkDFyRF1rJNaKwE4-2" source="FWpXfkDFyRF1rJNaKwE4-7" target="FWpXfkDFyRF1rJNaKwE4-4" edge="1">
          <mxGeometry relative="1" as="geometry">
            <mxPoint x="240" y="90" as="targetPoint" />
            <Array as="points">
              <mxPoint x="365" y="100" />
              <mxPoint x="240" y="100" />
            </Array>
          </mxGeometry>
        </mxCell>
        <mxCell id="FWpXfkDFyRF1rJNaKwE4-7" value="Player" style="html=1;whiteSpace=wrap;" parent="FWpXfkDFyRF1rJNaKwE4-2" vertex="1">
          <mxGeometry x="310" y="110" width="110" height="30" as="geometry" />
        </mxCell>
        <mxCell id="FWpXfkDFyRF1rJNaKwE4-6" value="&lt;div&gt;«interface»&lt;br&gt;&lt;/div&gt;MoneyValidator" style="html=1;whiteSpace=wrap;" parent="FWpXfkDFyRF1rJNaKwE4-2" vertex="1">
          <mxGeometry x="440" y="50" width="110" height="30" as="geometry" />
        </mxCell>
        <mxCell id="FWpXfkDFyRF1rJNaKwE4-5" value="&lt;div&gt;&lt;div&gt;«abstract»&lt;br&gt;&lt;/div&gt;&lt;/div&gt;Game" style="html=1;whiteSpace=wrap;" parent="FWpXfkDFyRF1rJNaKwE4-2" vertex="1">
          <mxGeometry x="160" y="180" width="110" height="30" as="geometry" />
        </mxCell>
        <mxCell id="FWpXfkDFyRF1rJNaKwE4-4" value="&lt;div&gt;«interface»&lt;br&gt;&lt;/div&gt;Entity" style="html=1;whiteSpace=wrap;" parent="FWpXfkDFyRF1rJNaKwE4-2" vertex="1">
          <mxGeometry x="160" y="50" width="110" height="30" as="geometry" />
        </mxCell>
        <mxCell id="FWpXfkDFyRF1rJNaKwE4-19" value="coinflip.controllers" style="shape=folder;fontStyle=1;tabWidth=140;tabHeight=30;tabPosition=left;html=1;boundedLbl=1;labelInHeader=1;container=1;collapsible=0;recursiveResize=0;whiteSpace=wrap;" parent="1" vertex="1">
          <mxGeometry x="-450" y="520" width="430" height="180" as="geometry" />
        </mxCell>
        <mxCell id="FWpXfkDFyRF1rJNaKwE4-20" value="Coin1Controller" style="html=1;whiteSpace=wrap;" parent="FWpXfkDFyRF1rJNaKwE4-19" vertex="1">
          <mxGeometry width="110" height="30" relative="1" as="geometry">
            <mxPoint x="20" y="50" as="offset" />
          </mxGeometry>
        </mxCell>
        <mxCell id="FWpXfkDFyRF1rJNaKwE4-39" value="Coin2Controller" style="html=1;whiteSpace=wrap;" parent="FWpXfkDFyRF1rJNaKwE4-19" vertex="1">
          <mxGeometry x="160" y="50" width="110" height="30" as="geometry" />
        </mxCell>
        <mxCell id="FWpXfkDFyRF1rJNaKwE4-38" value="Coin3Controller" style="html=1;whiteSpace=wrap;" parent="FWpXfkDFyRF1rJNaKwE4-19" vertex="1">
          <mxGeometry x="300" y="50" width="110" height="30" as="geometry" />
        </mxCell>
        <mxCell id="FWpXfkDFyRF1rJNaKwE4-37" value="Coin6Controller" style="html=1;whiteSpace=wrap;" parent="FWpXfkDFyRF1rJNaKwE4-19" vertex="1">
          <mxGeometry x="300" y="110" width="110" height="30" as="geometry" />
        </mxCell>
        <mxCell id="FWpXfkDFyRF1rJNaKwE4-36" value="Coin5Controller" style="html=1;whiteSpace=wrap;" parent="FWpXfkDFyRF1rJNaKwE4-19" vertex="1">
          <mxGeometry x="160" y="110" width="110" height="30" as="geometry" />
        </mxCell>
        <mxCell id="FWpXfkDFyRF1rJNaKwE4-35" value="Coin4Controller" style="html=1;whiteSpace=wrap;" parent="FWpXfkDFyRF1rJNaKwE4-19" vertex="1">
          <mxGeometry x="20" y="110" width="110" height="30" as="geometry" />
        </mxCell>
        <mxCell id="FWpXfkDFyRF1rJNaKwE4-44" value="diceGame" style="shape=folder;fontStyle=1;tabWidth=110;tabHeight=30;tabPosition=left;html=1;boundedLbl=1;labelInHeader=1;container=1;collapsible=0;recursiveResize=0;whiteSpace=wrap;" parent="1" vertex="1">
          <mxGeometry y="520" width="350" height="260" as="geometry" />
        </mxCell>
        <mxCell id="FWpXfkDFyRF1rJNaKwE4-45" value="Dice3D" style="html=1;whiteSpace=wrap;" parent="FWpXfkDFyRF1rJNaKwE4-44" vertex="1">
          <mxGeometry width="110" height="30" relative="1" as="geometry">
            <mxPoint x="20" y="50" as="offset" />
          </mxGeometry>
        </mxCell>
        <mxCell id="FWpXfkDFyRF1rJNaKwE4-46" value="DiceGame" style="html=1;whiteSpace=wrap;" parent="FWpXfkDFyRF1rJNaKwE4-44" vertex="1">
          <mxGeometry x="160" y="50" width="110" height="30" as="geometry" />
        </mxCell>
        <mxCell id="FWpXfkDFyRF1rJNaKwE4-49" value="DiceGameModeController" style="html=1;whiteSpace=wrap;" parent="FWpXfkDFyRF1rJNaKwE4-44" vertex="1">
          <mxGeometry x="165.5" y="162" width="160" height="30" as="geometry" />
        </mxCell>
        <mxCell id="FWpXfkDFyRF1rJNaKwE4-50" value="DiceGameController" style="html=1;whiteSpace=wrap;" parent="FWpXfkDFyRF1rJNaKwE4-44" vertex="1">
          <mxGeometry x="28.5" y="162" width="120" height="30" as="geometry" />
        </mxCell>
        <mxCell id="FWpXfkDFyRF1rJNaKwE4-51" value="classi estendono SceneController" style="text;html=1;align=center;verticalAlign=middle;whiteSpace=wrap;rounded=0;" parent="FWpXfkDFyRF1rJNaKwE4-44" vertex="1">
          <mxGeometry x="25" y="210" width="300" height="30" as="geometry" />
        </mxCell>
        <mxCell id="FWpXfkDFyRF1rJNaKwE4-105" value="" style="rounded=0;whiteSpace=wrap;html=1;fillColor=none;" parent="FWpXfkDFyRF1rJNaKwE4-44" vertex="1">
          <mxGeometry x="20" y="105" width="95" height="30" as="geometry" />
        </mxCell>
        <mxCell id="FWpXfkDFyRF1rJNaKwE4-106" value="controllers" style="text;html=1;align=center;verticalAlign=middle;whiteSpace=wrap;rounded=0;" parent="FWpXfkDFyRF1rJNaKwE4-44" vertex="1">
          <mxGeometry x="28.5" y="105" width="60" height="30" as="geometry" />
        </mxCell>
        <mxCell id="FWpXfkDFyRF1rJNaKwE4-104" value="" style="rounded=0;whiteSpace=wrap;html=1;fillColor=none;" parent="FWpXfkDFyRF1rJNaKwE4-44" vertex="1">
          <mxGeometry x="20" y="135" width="310" height="105" as="geometry" />
        </mxCell>
        <mxCell id="gRIHP41eTiHyp5s1urNY-27" value="" style="rounded=0;whiteSpace=wrap;html=1;strokeWidth=0;strokeColor=none;" parent="FWpXfkDFyRF1rJNaKwE4-44" vertex="1">
          <mxGeometry x="50" y="200" width="250" height="30" as="geometry" />
        </mxCell>
        <mxCell id="FWpXfkDFyRF1rJNaKwE4-61" value="menu" style="shape=folder;fontStyle=1;tabWidth=110;tabHeight=30;tabPosition=left;html=1;boundedLbl=1;labelInHeader=1;container=1;collapsible=0;recursiveResize=0;whiteSpace=wrap;" parent="1" vertex="1">
          <mxGeometry x="330" y="100" width="410" height="250" as="geometry" />
        </mxCell>
        <mxCell id="FWpXfkDFyRF1rJNaKwE4-62" value="GameAccess" style="html=1;whiteSpace=wrap;" parent="FWpXfkDFyRF1rJNaKwE4-61" vertex="1">
          <mxGeometry width="110" height="30" relative="1" as="geometry">
            <mxPoint x="290" y="50" as="offset" />
          </mxGeometry>
        </mxCell>
        <mxCell id="gRIHP41eTiHyp5s1urNY-12" style="edgeStyle=orthogonalEdgeStyle;rounded=0;orthogonalLoop=1;jettySize=auto;html=1;endArrow=oval;endFill=1;strokeWidth=2;" parent="FWpXfkDFyRF1rJNaKwE4-61" source="FWpXfkDFyRF1rJNaKwE4-63" edge="1">
          <mxGeometry relative="1" as="geometry">
            <mxPoint x="-90" y="100" as="targetPoint" />
            <Array as="points">
              <mxPoint x="215" y="90" />
              <mxPoint x="-89" y="90" />
            </Array>
          </mxGeometry>
        </mxCell>
        <mxCell id="FWpXfkDFyRF1rJNaKwE4-63" value="LogInController" style="html=1;whiteSpace=wrap;" parent="FWpXfkDFyRF1rJNaKwE4-61" vertex="1">
          <mxGeometry x="160" y="50" width="110" height="30" as="geometry" />
        </mxCell>
        <mxCell id="gRIHP41eTiHyp5s1urNY-15" style="edgeStyle=orthogonalEdgeStyle;rounded=0;orthogonalLoop=1;jettySize=auto;html=1;endArrow=oval;endFill=1;strokeWidth=2;" parent="FWpXfkDFyRF1rJNaKwE4-61" source="FWpXfkDFyRF1rJNaKwE4-64" edge="1">
          <mxGeometry relative="1" as="geometry">
            <mxPoint x="-90" y="185" as="targetPoint" />
          </mxGeometry>
        </mxCell>
        <mxCell id="FWpXfkDFyRF1rJNaKwE4-64" value="GameChoiceMenuController" style="html=1;whiteSpace=wrap;" parent="FWpXfkDFyRF1rJNaKwE4-61" vertex="1">
          <mxGeometry x="20" y="170" width="160" height="30" as="geometry" />
        </mxCell>
        <mxCell id="FWpXfkDFyRF1rJNaKwE4-65" value="SignInController" style="html=1;whiteSpace=wrap;" parent="FWpXfkDFyRF1rJNaKwE4-61" vertex="1">
          <mxGeometry x="20" y="50" width="120" height="30" as="geometry" />
        </mxCell>
        <mxCell id="gRIHP41eTiHyp5s1urNY-14" style="edgeStyle=orthogonalEdgeStyle;rounded=0;orthogonalLoop=1;jettySize=auto;html=1;endArrow=oval;endFill=1;strokeWidth=2;" parent="FWpXfkDFyRF1rJNaKwE4-61" source="FWpXfkDFyRF1rJNaKwE4-68" edge="1">
          <mxGeometry relative="1" as="geometry">
            <mxPoint x="-90" y="100" as="targetPoint" />
            <Array as="points">
              <mxPoint x="255" y="100" />
              <mxPoint x="-89" y="100" />
            </Array>
          </mxGeometry>
        </mxCell>
        <mxCell id="FWpXfkDFyRF1rJNaKwE4-68" value="StartController" style="html=1;whiteSpace=wrap;" parent="FWpXfkDFyRF1rJNaKwE4-61" vertex="1">
          <mxGeometry x="200" y="110" width="110" height="30" as="geometry" />
        </mxCell>
        <mxCell id="gRIHP41eTiHyp5s1urNY-13" style="edgeStyle=orthogonalEdgeStyle;rounded=0;orthogonalLoop=1;jettySize=auto;html=1;endArrow=oval;endFill=1;strokeWidth=2;" parent="FWpXfkDFyRF1rJNaKwE4-61" source="FWpXfkDFyRF1rJNaKwE4-67" edge="1">
          <mxGeometry relative="1" as="geometry">
            <mxPoint x="-90" y="125" as="targetPoint" />
          </mxGeometry>
        </mxCell>
        <mxCell id="FWpXfkDFyRF1rJNaKwE4-67" value="ModeMenuController" style="html=1;whiteSpace=wrap;" parent="FWpXfkDFyRF1rJNaKwE4-61" vertex="1">
          <mxGeometry x="20" y="110" width="140" height="30" as="geometry" />
        </mxCell>
        <mxCell id="gRIHP41eTiHyp5s1urNY-16" style="edgeStyle=orthogonalEdgeStyle;rounded=0;orthogonalLoop=1;jettySize=auto;html=1;endArrow=oval;endFill=1;strokeWidth=2;" parent="FWpXfkDFyRF1rJNaKwE4-61" source="btJK6snLStL6nmimXHYc-6" edge="1">
          <mxGeometry relative="1" as="geometry">
            <mxPoint x="-90" y="160" as="targetPoint" />
            <Array as="points">
              <mxPoint x="280" y="160" />
              <mxPoint x="-89" y="160" />
            </Array>
          </mxGeometry>
        </mxCell>
        <mxCell id="btJK6snLStL6nmimXHYc-6" value="AllMoneyLostMenu&lt;span style=&quot;background-color: transparent; color: light-dark(rgb(0, 0, 0), rgb(255, 255, 255));&quot;&gt;Controller&lt;/span&gt;" style="html=1;whiteSpace=wrap;" parent="FWpXfkDFyRF1rJNaKwE4-61" vertex="1">
          <mxGeometry x="200" y="170" width="160" height="30" as="geometry" />
        </mxCell>
        <mxCell id="FWpXfkDFyRF1rJNaKwE4-69" value="fileManager" style="shape=folder;fontStyle=1;tabWidth=110;tabHeight=30;tabPosition=left;html=1;boundedLbl=1;labelInHeader=1;container=1;collapsible=0;recursiveResize=0;whiteSpace=wrap;" parent="1" vertex="1">
          <mxGeometry x="-770" y="320" width="190" height="160" as="geometry" />
        </mxCell>
        <mxCell id="FWpXfkDFyRF1rJNaKwE4-73" value="PswEncrypting" style="html=1;whiteSpace=wrap;" parent="FWpXfkDFyRF1rJNaKwE4-69" vertex="1">
          <mxGeometry x="20" y="50" width="120" height="30" as="geometry" />
        </mxCell>
        <mxCell id="FWpXfkDFyRF1rJNaKwE4-75" value="UserFileManager" style="html=1;whiteSpace=wrap;" parent="FWpXfkDFyRF1rJNaKwE4-69" vertex="1">
          <mxGeometry x="20" y="110" width="140" height="30" as="geometry" />
        </mxCell>
        <mxCell id="FWpXfkDFyRF1rJNaKwE4-76" value="gameChart" style="shape=folder;fontStyle=1;tabWidth=110;tabHeight=30;tabPosition=left;html=1;boundedLbl=1;labelInHeader=1;container=1;collapsible=0;recursiveResize=0;whiteSpace=wrap;" parent="1" vertex="1">
          <mxGeometry x="-770" y="80" width="210" height="210" as="geometry" />
        </mxCell>
        <mxCell id="FWpXfkDFyRF1rJNaKwE4-78" value="ChartInteractions" style="html=1;whiteSpace=wrap;" parent="FWpXfkDFyRF1rJNaKwE4-76" vertex="1">
          <mxGeometry x="35" y="100" width="140" height="30" as="geometry" />
        </mxCell>
        <mxCell id="FWpXfkDFyRF1rJNaKwE4-80" value="GameChart" style="html=1;whiteSpace=wrap;" parent="FWpXfkDFyRF1rJNaKwE4-76" vertex="1">
          <mxGeometry x="35" y="50" width="140" height="30" as="geometry" />
        </mxCell>
        <mxCell id="FWpXfkDFyRF1rJNaKwE4-77" value="ChartDataManager" style="html=1;whiteSpace=wrap;" parent="FWpXfkDFyRF1rJNaKwE4-76" vertex="1">
          <mxGeometry x="35" y="150" width="140" height="30" as="geometry" />
        </mxCell>
        <mxCell id="FWpXfkDFyRF1rJNaKwE4-82" value="guessNumber" style="shape=folder;fontStyle=1;tabWidth=110;tabHeight=30;tabPosition=left;html=1;boundedLbl=1;labelInHeader=1;container=1;collapsible=0;recursiveResize=0;whiteSpace=wrap;" parent="1" vertex="1">
          <mxGeometry x="940" y="520" width="320" height="195" as="geometry" />
        </mxCell>
        <mxCell id="FWpXfkDFyRF1rJNaKwE4-83" value="Botton" style="html=1;whiteSpace=wrap;" parent="FWpXfkDFyRF1rJNaKwE4-82" vertex="1">
          <mxGeometry width="110" height="30" relative="1" as="geometry">
            <mxPoint x="20" y="50" as="offset" />
          </mxGeometry>
        </mxCell>
        <mxCell id="FWpXfkDFyRF1rJNaKwE4-84" value="GuessNumber" style="html=1;whiteSpace=wrap;" parent="FWpXfkDFyRF1rJNaKwE4-82" vertex="1">
          <mxGeometry x="160" y="50" width="110" height="30" as="geometry" />
        </mxCell>
        <mxCell id="gRIHP41eTiHyp5s1urNY-9" style="edgeStyle=orthogonalEdgeStyle;rounded=0;orthogonalLoop=1;jettySize=auto;html=1;endArrow=oval;endFill=1;strokeWidth=2;" parent="FWpXfkDFyRF1rJNaKwE4-82" source="FWpXfkDFyRF1rJNaKwE4-85" edge="1">
          <mxGeometry relative="1" as="geometry">
            <mxPoint x="-30" y="90" as="targetPoint" />
            <Array as="points">
              <mxPoint x="224" y="100" />
              <mxPoint x="-29" y="100" />
            </Array>
          </mxGeometry>
        </mxCell>
        <mxCell id="FWpXfkDFyRF1rJNaKwE4-85" value="GameController" style="html=1;whiteSpace=wrap;" parent="FWpXfkDFyRF1rJNaKwE4-82" vertex="1">
          <mxGeometry x="157" y="110" width="133" height="30" as="geometry" />
        </mxCell>
        <mxCell id="FWpXfkDFyRF1rJNaKwE4-86" value="InitialController" style="html=1;whiteSpace=wrap;" parent="FWpXfkDFyRF1rJNaKwE4-82" vertex="1">
          <mxGeometry x="20" y="110" width="120" height="30" as="geometry" />
        </mxCell>
        <mxCell id="FWpXfkDFyRF1rJNaKwE4-108" value="slot" style="shape=folder;fontStyle=1;tabWidth=110;tabHeight=30;tabPosition=left;html=1;boundedLbl=1;labelInHeader=1;container=1;collapsible=0;recursiveResize=0;whiteSpace=wrap;" parent="1" vertex="1">
          <mxGeometry x="1300" y="520" width="410" height="270" as="geometry" />
        </mxCell>
        <mxCell id="FWpXfkDFyRF1rJNaKwE4-109" value="MoneyManagerSlot" style="html=1;whiteSpace=wrap;" parent="FWpXfkDFyRF1rJNaKwE4-108" vertex="1">
          <mxGeometry width="110" height="30" relative="1" as="geometry">
            <mxPoint x="20" y="50" as="offset" />
          </mxGeometry>
        </mxCell>
        <mxCell id="FWpXfkDFyRF1rJNaKwE4-110" value="SimulationSlot" style="html=1;whiteSpace=wrap;" parent="FWpXfkDFyRF1rJNaKwE4-108" vertex="1">
          <mxGeometry x="280" y="50" width="120" height="30" as="geometry" />
        </mxCell>
        <mxCell id="FWpXfkDFyRF1rJNaKwE4-117" value="" style="rounded=0;whiteSpace=wrap;html=1;fillColor=none;" parent="FWpXfkDFyRF1rJNaKwE4-108" vertex="1">
          <mxGeometry x="22.5" y="150" width="287.5" height="106" as="geometry" />
        </mxCell>
        <mxCell id="FWpXfkDFyRF1rJNaKwE4-118" value="" style="rounded=0;whiteSpace=wrap;html=1;fillColor=none;" parent="FWpXfkDFyRF1rJNaKwE4-108" vertex="1">
          <mxGeometry x="22.5" y="120" width="95" height="30" as="geometry" />
        </mxCell>
        <mxCell id="FWpXfkDFyRF1rJNaKwE4-119" value="controllers" style="text;html=1;align=center;verticalAlign=middle;whiteSpace=wrap;rounded=0;" parent="FWpXfkDFyRF1rJNaKwE4-108" vertex="1">
          <mxGeometry x="34" y="120" width="60" height="30" as="geometry" />
        </mxCell>
        <mxCell id="FWpXfkDFyRF1rJNaKwE4-121" value="InstractionController" style="html=1;whiteSpace=wrap;" parent="FWpXfkDFyRF1rJNaKwE4-108" vertex="1">
          <mxGeometry x="34" y="166" width="123.5" height="30" as="geometry" />
        </mxCell>
        <mxCell id="FWpXfkDFyRF1rJNaKwE4-122" value="SlotMachineController" style="html=1;whiteSpace=wrap;" parent="FWpXfkDFyRF1rJNaKwE4-108" vertex="1">
          <mxGeometry x="175.75" y="166" width="123.5" height="30" as="geometry" />
        </mxCell>
        <mxCell id="btJK6snLStL6nmimXHYc-7" value="SlotMachine" style="html=1;whiteSpace=wrap;" parent="FWpXfkDFyRF1rJNaKwE4-108" vertex="1">
          <mxGeometry x="150" y="50" width="110" height="30" as="geometry" />
        </mxCell>
        <mxCell id="btJK6snLStL6nmimXHYc-1" value="autoMode" style="shape=folder;fontStyle=1;tabWidth=110;tabHeight=30;tabPosition=left;html=1;boundedLbl=1;labelInHeader=1;container=1;collapsible=0;recursiveResize=0;whiteSpace=wrap;" parent="1" vertex="1">
          <mxGeometry x="-760" y="600" width="190" height="170" as="geometry" />
        </mxCell>
        <mxCell id="btJK6snLStL6nmimXHYc-2" value="AutoMode implements Runnable" style="html=1;whiteSpace=wrap;" parent="btJK6snLStL6nmimXHYc-1" vertex="1">
          <mxGeometry x="20" y="50" width="120" height="30" as="geometry" />
        </mxCell>
        <mxCell id="btJK6snLStL6nmimXHYc-3" value="AutoModeController" style="html=1;whiteSpace=wrap;" parent="btJK6snLStL6nmimXHYc-1" vertex="1">
          <mxGeometry x="20" y="110" width="140" height="30" as="geometry" />
        </mxCell>
        <mxCell id="gRIHP41eTiHyp5s1urNY-3" style="edgeStyle=orthogonalEdgeStyle;rounded=0;orthogonalLoop=1;jettySize=auto;html=1;entryX=0;entryY=0.5;entryDx=0;entryDy=0;dashed=1;dashPattern=8 8;strokeWidth=2;" parent="1" source="FWpXfkDFyRF1rJNaKwE4-80" target="FWpXfkDFyRF1rJNaKwE4-3" edge="1">
          <mxGeometry relative="1" as="geometry" />
        </mxCell>
        <mxCell id="gRIHP41eTiHyp5s1urNY-4" style="edgeStyle=orthogonalEdgeStyle;rounded=0;orthogonalLoop=1;jettySize=auto;html=1;entryX=0;entryY=0.5;entryDx=0;entryDy=0;exitX=1;exitY=0.5;exitDx=0;exitDy=0;strokeWidth=2;" parent="1" source="btJK6snLStL6nmimXHYc-3" target="FWpXfkDFyRF1rJNaKwE4-8" edge="1">
          <mxGeometry relative="1" as="geometry">
            <Array as="points">
              <mxPoint x="-500" y="725" />
              <mxPoint x="-500" y="275" />
            </Array>
          </mxGeometry>
        </mxCell>
        <mxCell id="gRIHP41eTiHyp5s1urNY-5" style="edgeStyle=orthogonalEdgeStyle;rounded=0;orthogonalLoop=1;jettySize=auto;html=1;entryX=0.118;entryY=1;entryDx=0;entryDy=0;entryPerimeter=0;exitX=0;exitY=0;exitDx=70;exitDy=0;exitPerimeter=0;strokeWidth=2;" parent="1" source="FWpXfkDFyRF1rJNaKwE4-19" target="FWpXfkDFyRF1rJNaKwE4-8" edge="1">
          <mxGeometry relative="1" as="geometry">
            <Array as="points">
              <mxPoint x="-387" y="520" />
            </Array>
          </mxGeometry>
        </mxCell>
        <mxCell id="FWpXfkDFyRF1rJNaKwE4-89" value="roulette" style="shape=folder;fontStyle=1;tabWidth=110;tabHeight=30;tabPosition=left;html=1;boundedLbl=1;labelInHeader=1;container=1;collapsible=0;recursiveResize=0;whiteSpace=wrap;" parent="1" vertex="1">
          <mxGeometry x="380" y="520" width="510" height="285" as="geometry" />
        </mxCell>
        <mxCell id="FWpXfkDFyRF1rJNaKwE4-90" value="BetOption" style="html=1;whiteSpace=wrap;" parent="FWpXfkDFyRF1rJNaKwE4-89" vertex="1">
          <mxGeometry width="110" height="30" relative="1" as="geometry">
            <mxPoint x="20" y="50" as="offset" />
          </mxGeometry>
        </mxCell>
        <mxCell id="FWpXfkDFyRF1rJNaKwE4-91" value="BetOptionCellFactory" style="html=1;whiteSpace=wrap;" parent="FWpXfkDFyRF1rJNaKwE4-89" vertex="1">
          <mxGeometry x="171.5" y="50" width="130" height="30" as="geometry" />
        </mxCell>
        <mxCell id="FWpXfkDFyRF1rJNaKwE4-92" value="PopUpController" style="html=1;whiteSpace=wrap;" parent="FWpXfkDFyRF1rJNaKwE4-89" vertex="1">
          <mxGeometry x="32" y="151" width="120" height="30" as="geometry" />
        </mxCell>
        <mxCell id="FWpXfkDFyRF1rJNaKwE4-93" value="InputBet" style="html=1;whiteSpace=wrap;" parent="FWpXfkDFyRF1rJNaKwE4-89" vertex="1">
          <mxGeometry x="330" y="50" width="120" height="30" as="geometry" />
        </mxCell>
        <mxCell id="FWpXfkDFyRF1rJNaKwE4-100" value="RicaricaController" style="html=1;whiteSpace=wrap;" parent="FWpXfkDFyRF1rJNaKwE4-89" vertex="1">
          <mxGeometry x="335.5" y="151" width="133" height="30" as="geometry" />
        </mxCell>
        <mxCell id="FWpXfkDFyRF1rJNaKwE4-99" value="RouletteController" style="html=1;whiteSpace=wrap;" parent="FWpXfkDFyRF1rJNaKwE4-89" vertex="1">
          <mxGeometry x="183.5" y="151" width="133" height="30" as="geometry" />
        </mxCell>
        <mxCell id="FWpXfkDFyRF1rJNaKwE4-97" value="YouWinLostController" style="html=1;whiteSpace=wrap;" parent="FWpXfkDFyRF1rJNaKwE4-89" vertex="1">
          <mxGeometry x="210.5" y="211" width="133" height="30" as="geometry" />
        </mxCell>
        <mxCell id="FWpXfkDFyRF1rJNaKwE4-96" value="RoulettePazzaController" style="html=1;whiteSpace=wrap;" parent="FWpXfkDFyRF1rJNaKwE4-89" vertex="1">
          <mxGeometry x="33.5" y="211" width="150" height="30" as="geometry" />
        </mxCell>
        <mxCell id="FWpXfkDFyRF1rJNaKwE4-101" value="" style="rounded=0;whiteSpace=wrap;html=1;fillColor=none;" parent="FWpXfkDFyRF1rJNaKwE4-89" vertex="1">
          <mxGeometry x="15" y="134" width="470" height="135" as="geometry" />
        </mxCell>
        <mxCell id="FWpXfkDFyRF1rJNaKwE4-102" value="" style="rounded=0;whiteSpace=wrap;html=1;fillColor=none;" parent="FWpXfkDFyRF1rJNaKwE4-89" vertex="1">
          <mxGeometry x="15" y="104" width="95" height="30" as="geometry" />
        </mxCell>
        <mxCell id="FWpXfkDFyRF1rJNaKwE4-103" value="controllers" style="text;html=1;align=center;verticalAlign=middle;whiteSpace=wrap;rounded=0;" parent="FWpXfkDFyRF1rJNaKwE4-89" vertex="1">
          <mxGeometry x="26.5" y="104" width="60" height="30" as="geometry" />
        </mxCell>
        <mxCell id="gRIHP41eTiHyp5s1urNY-8" style="edgeStyle=orthogonalEdgeStyle;rounded=0;orthogonalLoop=1;jettySize=auto;html=1;entryX=0.664;entryY=1;entryDx=0;entryDy=0;entryPerimeter=0;strokeWidth=2;" parent="1" source="FWpXfkDFyRF1rJNaKwE4-86" target="FWpXfkDFyRF1rJNaKwE4-8" edge="1">
          <mxGeometry relative="1" as="geometry">
            <Array as="points">
              <mxPoint x="910" y="645" />
              <mxPoint x="910" y="460" />
              <mxPoint x="-327" y="460" />
            </Array>
          </mxGeometry>
        </mxCell>
        <mxCell id="gRIHP41eTiHyp5s1urNY-10" style="edgeStyle=orthogonalEdgeStyle;rounded=0;orthogonalLoop=1;jettySize=auto;html=1;entryX=0.5;entryY=1;entryDx=0;entryDy=0;strokeWidth=2;exitX=0;exitY=0.5;exitDx=0;exitDy=0;" parent="1" source="FWpXfkDFyRF1rJNaKwE4-102" target="FWpXfkDFyRF1rJNaKwE4-8" edge="1">
          <mxGeometry relative="1" as="geometry">
            <mxPoint x="400" y="639" as="sourcePoint" />
            <Array as="points">
              <mxPoint x="360" y="639" />
              <mxPoint x="360" y="480" />
              <mxPoint x="-345" y="480" />
            </Array>
          </mxGeometry>
        </mxCell>
        <mxCell id="gRIHP41eTiHyp5s1urNY-11" style="edgeStyle=orthogonalEdgeStyle;rounded=0;orthogonalLoop=1;jettySize=auto;html=1;strokeWidth=2;" parent="1" source="FWpXfkDFyRF1rJNaKwE4-65" edge="1">
          <mxGeometry relative="1" as="geometry">
            <mxPoint x="-290" y="290" as="targetPoint" />
            <Array as="points">
              <mxPoint x="240" y="165" />
              <mxPoint x="240" y="420" />
              <mxPoint x="-290" y="420" />
            </Array>
          </mxGeometry>
        </mxCell>
        <mxCell id="gRIHP41eTiHyp5s1urNY-17" style="edgeStyle=orthogonalEdgeStyle;rounded=0;orthogonalLoop=1;jettySize=auto;html=1;entryX=0.5;entryY=1;entryDx=0;entryDy=0;strokeWidth=2;strokeColor=light-dark(#000000,#70E7FF);" parent="1" source="FWpXfkDFyRF1rJNaKwE4-46" target="FWpXfkDFyRF1rJNaKwE4-5" edge="1">
          <mxGeometry relative="1" as="geometry">
            <Array as="points">
              <mxPoint x="215" y="350" />
              <mxPoint x="-205" y="350" />
            </Array>
          </mxGeometry>
        </mxCell>
        <mxCell id="gRIHP41eTiHyp5s1urNY-18" style="edgeStyle=orthogonalEdgeStyle;rounded=0;orthogonalLoop=1;jettySize=auto;html=1;entryX=0.25;entryY=1;entryDx=0;entryDy=0;strokeWidth=2;" parent="1" source="FWpXfkDFyRF1rJNaKwE4-105" target="FWpXfkDFyRF1rJNaKwE4-8" edge="1">
          <mxGeometry relative="1" as="geometry">
            <Array as="points">
              <mxPoint x="-10" y="640" />
              <mxPoint x="-10" y="500" />
              <mxPoint x="-370" y="500" />
              <mxPoint x="-370" y="300" />
              <mxPoint x="-372" y="300" />
            </Array>
          </mxGeometry>
        </mxCell>
        <mxCell id="gRIHP41eTiHyp5s1urNY-22" style="edgeStyle=orthogonalEdgeStyle;rounded=0;orthogonalLoop=1;jettySize=auto;html=1;exitX=0;exitY=0.75;exitDx=0;exitDy=0;strokeWidth=2;entryX=0.815;entryY=0.978;entryDx=0;entryDy=0;entryPerimeter=0;" parent="1" source="FWpXfkDFyRF1rJNaKwE4-118" target="FWpXfkDFyRF1rJNaKwE4-8" edge="1">
          <mxGeometry relative="1" as="geometry">
            <mxPoint x="1322.5" y="675" as="sourcePoint" />
            <mxPoint x="-310" y="310" as="targetPoint" />
            <Array as="points">
              <mxPoint x="1323" y="660" />
              <mxPoint x="1282" y="660" />
              <mxPoint x="1282" y="440" />
              <mxPoint x="-310" y="440" />
            </Array>
          </mxGeometry>
        </mxCell>
        <mxCell id="gRIHP41eTiHyp5s1urNY-23" value="&lt;div&gt;«interface»&lt;br&gt;&lt;/div&gt;Runnable" style="html=1;whiteSpace=wrap;" parent="1" vertex="1">
          <mxGeometry x="-760" y="530" width="110" height="30" as="geometry" />
        </mxCell>
        <mxCell id="gRIHP41eTiHyp5s1urNY-25" style="edgeStyle=orthogonalEdgeStyle;rounded=0;orthogonalLoop=1;jettySize=auto;html=1;exitX=0;exitY=0.5;exitDx=0;exitDy=0;entryX=0;entryY=0.5;entryDx=0;entryDy=0;strokeWidth=2;dashed=1;dashPattern=8 8;" parent="1" source="btJK6snLStL6nmimXHYc-2" target="gRIHP41eTiHyp5s1urNY-23" edge="1">
          <mxGeometry relative="1" as="geometry">
            <Array as="points">
              <mxPoint x="-780" y="665" />
              <mxPoint x="-780" y="545" />
            </Array>
          </mxGeometry>
        </mxCell>
        <mxCell id="gRIHP41eTiHyp5s1urNY-26" style="edgeStyle=orthogonalEdgeStyle;rounded=0;orthogonalLoop=1;jettySize=auto;html=1;exitX=0;exitY=1;exitDx=0;exitDy=0;entryX=0;entryY=0.5;entryDx=0;entryDy=0;endArrow=none;startFill=1;startArrow=classic;strokeWidth=2;dashed=1;dashPattern=8 8;" parent="1" source="FWpXfkDFyRF1rJNaKwE4-3" target="FWpXfkDFyRF1rJNaKwE4-104" edge="1">
          <mxGeometry relative="1" as="geometry">
            <Array as="points">
              <mxPoint x="-480" y="160" />
              <mxPoint x="-480" y="707" />
            </Array>
          </mxGeometry>
        </mxCell>
      </root>
    </mxGraphModel>
  </diagram>
</mxfile>
